<svg xmlns="http://www.w3.org/2000/svg" width="800" height="1000" viewBox="0 0 800 1000" role="img" aria-label="LCA of the Impossible Episode 42 catalogue cover">
<defs>
  <pattern id="grid" width="40" height="40" patternUnits="userSpaceOnUse">
    <path d="M40 0H0V40" fill="none" stroke="#b78b55" stroke-width="0.7" opacity="0.10"/>
  </pattern>
  <filter id="paper" x="-20%" y="-20%" width="140%" height="140%">
    <feTurbulence type="fractalNoise" baseFrequency="0.8" numOctaves="2" seed="42" result="noise"/>
    <feColorMatrix in="noise" type="saturate" values="0" result="mono"/>
    <feComponentTransfer in="mono"><feFuncA type="table" tableValues="0 0.06"/></feComponentTransfer>
  </filter>
  <filter id="glow" x="-50%" y="-50%" width="200%" height="200%">
    <feGaussianBlur stdDeviation="4" result="b"/><feMerge><feMergeNode in="b"/><feMergeNode in="SourceGraphic"/></feMerge>
  </filter>
  <style>
    .series{font-family:Georgia,'Times New Roman',serif;font-size:20px;letter-spacing:5px;fill:#c7ad83}
    .episode{font-family:Arial,sans-serif;font-size:15px;font-weight:600;letter-spacing:5px;fill:#b76843}
    .title{font-family:Georgia,'Times New Roman',serif;font-weight:400;letter-spacing:5px;fill:#ddd2bf}
    .micro{font-family:Arial,sans-serif;font-size:12px;letter-spacing:2px;fill:#9e8665}
    .lens{font-family:Georgia,'Times New Roman',serif;font-size:17px;font-style:italic;letter-spacing:4px;fill:#c7ad83}
    .tech{fill:none;stroke:#a77c45;stroke-width:1.2;opacity:.62}
    .tech2{fill:none;stroke:#c7ad83;stroke-width:1;opacity:.28}
    .accent{fill:none;stroke:#b76843;stroke-width:2.2;stroke-linecap:round;stroke-linejoin:round}
    .subject{fill:none;stroke:#d0c1a9;stroke-width:2;stroke-linecap:round;stroke-linejoin:round}
    .subject2{fill:none;stroke:#9c8666;stroke-width:1.2;stroke-linecap:round;stroke-linejoin:round}
  </style>
</defs>
<rect width="800" height="1000" fill="#071015"/>
<rect width="800" height="1000" fill="url(#grid)"/>
<rect width="800" height="1000" fill="#fff" opacity="0.15" filter="url(#paper)"/>

<rect x="18" y="18" width="764" height="964" rx="2" fill="none" stroke="#9c7343" stroke-width="1.4"/>
<path d="M42 42h70M688 42h70M42 958h70M688 958h70" class="tech"/>
<circle cx="28" cy="28" r="8" class="tech"/><circle cx="772" cy="28" r="8" class="tech"/>
<circle cx="28" cy="972" r="8" class="tech"/><circle cx="772" cy="972" r="8" class="tech"/>
<path d="M400 18v24M388 30h24" class="tech"/>

<text x="400" y="72" text-anchor="middle" class="series">LCA OF THE IMPOSSIBLE</text>
<line x1="92" y1="66" x2="250" y2="66" class="tech"/><line x1="550" y1="66" x2="708" y2="66" class="tech"/>
<circle cx="260" cy="66" r="3" class="tech"/><circle cx="540" cy="66" r="3" class="tech"/>
<text x="400" y="116" text-anchor="middle" class="episode">EPISODE #42</text>
<line x1="340" y1="132" x2="386" y2="132" stroke="#b76843" opacity=".9"/><line x1="414" y1="132" x2="460" y2="132" stroke="#b76843" opacity=".9"/>
<rect x="396" y="128" width="8" height="8" transform="rotate(45 400 132)" fill="none" stroke="#b76843"/>
<text x="400" y="180" text-anchor="middle" class="title" font-size="68">TALOS</text>

<circle cx="390" cy="520" r="235" class="tech2"/><circle cx="390" cy="520" r="180" class="tech2"/>
<circle cx="390" cy="520" r="125" class="tech2"/>
<path d="M155 520h470M390 285v470" class="tech2"/>
<path d="M170 352A235 235 0 0 1 601 420" class="tech" stroke-dasharray="3 9"/>
<path d="M190 690A235 235 0 0 0 590 670" class="tech" stroke-dasharray="2 7"/>


<g transform="translate(0 8)">
  <circle cx="400" cy="365" r="40" fill="#151b1c" stroke="#bc8a55" stroke-width="3"/>
  <path d="M368 355q32-42 64 0M379 372h42M386 386h28" class="subject"/>
  <path d="M350 410Q400 385 450 410L478 555Q400 595 322 555Z" fill="#151b1c" stroke="#bc8a55" stroke-width="3"/>
  <path d="M350 425l50 60 50-60M342 510h116M365 545h70" class="subject2"/>
  <path d="M325 430L275 575L306 590L365 465M475 430L528 575L498 590L438 465" class="subject"/>
  <circle cx="290" cy="590" r="18" class="subject"/><circle cx="513" cy="590" r="18" class="subject"/>
  <path d="M350 563L320 735H365L400 600L435 735H480L450 563" class="subject"/>
  <path d="M318 735h50M432 735h52" class="subject"/>
  <circle cx="400" cy="498" r="28" class="tech"/><circle cx="400" cy="498" r="14" class="tech2"/>
  <path d="M250 753Q400 725 552 753" stroke="#a56b43" stroke-width="2" fill="none"/>
  <path d="M155 765Q240 744 320 765T500 765T650 760" class="tech2"/>
</g>

<g transform="translate(58 690)">
  <text x="0" y="0" class="micro">CYCLE</text>
  <rect x="0" y="14" width="54" height="46" class="tech"/>
  <text x="27" y="48" text-anchor="middle" font-family="Georgia,serif" font-size="30" fill="#b76843">∞</text>
  <rect x="0" y="74" width="54" height="44" class="tech2"/>
  <path d="M0 74l54 44M54 74L0 118" class="tech2"/>
</g>

<g transform="translate(610 650)">
  <rect x="0" y="0" width="142" height="186" fill="#071015" opacity=".78" stroke="#9c7343"/>
  <text x="24" y="28" class="micro" fill="#c7ad83">SYSTEM LENS</text>
  <circle cx="72" cy="72" r="34" class="tech"/><circle cx="72" cy="72" r="20" class="tech2"/>
  <path d="M38 72h68M72 38v68" class="tech2"/>
  <path d="M72 72l25 -22" class="accent"/>
  <text x="634" y="690" class="micro" fill="#c7ad83">BRONZE</text><text x="634" y="718" class="micro" fill="#c7ad83">PATROL</text><text x="634" y="746" class="micro" fill="#c7ad83">SERVICE</text>
  <text x="24" y="166" class="micro">Σ FLOW × FACTOR</text>
</g>

<g transform="translate(400 895)">
  <circle cx="0" cy="0" r="20" fill="none" stroke="#a77c45"/>
  <path d="M0 -13L13 11H-13Z" fill="none" stroke="#c7ad83"/>
</g>
<line x1="250" y1="895" x2="365" y2="895" class="tech"/><line x1="435" y1="895" x2="550" y2="895" class="tech"/>
<text x="400" y="938" text-anchor="middle" class="lens">Operation-driven</text>
</svg>